<svg id="Capa_1" enable-background="new 0 0 512 512" height="512" viewBox="0 0 512 512" width="512" xmlns="http://www.w3.org/2000/svg"><style>*{fill: white}</style><g><g><circle cx="256" cy="52.25" r="37.5"/><circle cx="443.5" cy="84.25" r="37.5"/><circle cx="68.5" cy="84.25" r="37.5"/><path d="m383.576 115.261-53.347 43.649-31.229-54.67c-11.686 9.682-26.674 15.51-43 15.51s-31.314-5.828-43-15.51l-31.229 54.67-53.347-43.649c-10.559 20.321-31.142 34.617-55.161 36.302l24.25 115.187h316.973l24.25-115.187c-24.019-1.684-44.601-15.981-55.16-36.302z"/><path d="m411 341.75v-45h-310v45c0 8.284 6.716 15 15 15h280c8.284 0 15-6.716 15-15z"/></g><path d="m491.007 456.18c12.329-5.077 20.993-16.899 20.993-30.639 0-18.356-15.462-33.291-34.468-33.291h-21.11c-6.903 0-12.5 5.597-12.5 12.5v80c0 6.903 5.597 12.5 12.5 12.5s12.5-5.597 12.5-12.5v-15.822l21.194 24.081c2.472 2.808 5.921 4.241 9.389 4.241 2.933 0 5.879-1.026 8.254-3.116 5.182-4.562 5.686-12.46 1.125-17.643zm-13.475-22.348c-2.075 0-5.299.012-8.61.026v-16.608h8.61c5.044 0 9.468 3.874 9.468 8.291s-4.424 8.291-9.468 8.291z"/><path d="m414.147 417.25c6.903 0 12.5-5.597 12.5-12.5s-5.597-12.5-12.5-12.5h-33.709c-6.903 0-12.5 5.597-12.5 12.5v80c0 6.903 5.597 12.5 12.5 12.5h33.709c6.903 0 12.5-5.597 12.5-12.5s-5.597-12.5-12.5-12.5h-21.209v-15h18.724c6.903 0 12.5-5.597 12.5-12.5s-5.597-12.5-12.5-12.5h-18.724v-15z"/><path d="m338.172 392.25c-.003 0-.005 0-.008 0-6.899 0-12.496 5.592-12.5 12.492l-.025 41.269-33.295-48.215c-3.108-4.501-8.783-6.457-14.006-4.83-5.223 1.628-8.78 6.463-8.78 11.934v79.851c0 6.903 5.597 12.5 12.5 12.5s12.5-5.597 12.5-12.5v-39.752l31.208 45.19c3.574 5.164 9.573 7.349 15.288 5.564 5.81-1.814 9.563-7.191 9.563-13.691l.047-77.304c.004-6.904-5.589-12.504-12.492-12.508z"/><path d="m251.535 404.629c-.066-6.862-5.649-12.379-12.496-12.379-.041 0-.083 0-.124.001-6.903.066-12.445 5.717-12.378 12.62l.392 40.594-32.918-47.669c-3.109-4.501-8.782-6.457-14.006-4.83-5.223 1.628-8.78 6.463-8.78 11.934v79.851c0 6.903 5.597 12.5 12.5 12.5s12.5-5.597 12.5-12.5v-39.752l31.208 45.19c3.575 5.166 9.578 7.349 15.288 5.564 5.809-1.814 9.562-7.191 9.562-13.699 0-.04 0-.08-.001-.121z"/><path d="m141.45 392.25c-6.903 0-12.5 5.597-12.5 12.5v80c0 6.903 5.597 12.5 12.5 12.5s12.5-5.597 12.5-12.5v-80c0-6.903-5.596-12.5-12.5-12.5z"/><path d="m101.614 392.637c-6.771-1.348-13.353 3.049-14.7 9.819l-7.341 36.884-11.789-38.27c-1.821-5.911-7.687-9.607-13.807-8.681-5.212.784-9.267 4.716-10.353 9.688l-11.536 37.273-7.323-37.025c-1.34-6.773-7.919-11.178-14.688-9.837-6.772 1.34-11.176 7.916-9.837 14.688l15.587 78.799c.118.598.28 1.186.484 1.76 2.026 5.702 7.435 9.516 13.479 9.516h.096c6.083-.041 11.487-3.938 13.447-9.697.038-.109.073-.221.108-.331l12.39-40.032 12.335 40.04c.053.169.108.338.168.505 2.026 5.702 7.435 9.516 13.479 9.516h.1c6.085-.043 11.488-3.942 13.446-9.703.176-.518.317-1.046.424-1.581l15.649-78.629c1.349-6.774-3.048-13.355-9.818-14.702z"/></g></svg>